<!DOCTYPE svg PUBLIC "-//W3C//DTD SVG 20010904//EN" "http://www.w3.org/TR/2001/REC-SVG-20010904/DTD/svg10.dtd">
<svg version="1.0" xmlns="http://www.w3.org/2000/svg" width="1150px" height="1200px" viewBox="0 0 11500 12000" preserveAspectRatio="xMidYMid meet">
<g id="layer101" fill="#050404" stroke="none">
 <path d="M2930 5280 l0 -2350 2820 0 2820 0 0 2350 0 2350 -2820 0 -2820 0 0 -2350z"/>
 </g>
<g id="layer102" fill="#faf8f8" stroke="none">
 <path d="M3220 5280 l0 -2110 2530 0 2530 0 0 2110 0 2110 -2530 0 -2530 0 0 -2110z m1673 1513 c58 -170 154 -447 212 -618 59 -170 174 -503 255 -740 288 -835 360 -1044 360 -1048 0 -3 7 -22 16 -43 l16 -39 28 80 c25 70 377 1095 542 1575 33 96 107 312 165 480 58 168 132 385 166 483 l60 177 185 -2 185 -3 120 -355 c478 -1419 896 -2659 945 -2802 l41 -118 -167 0 -167 0 -39 113 c-44 130 -330 971 -483 1422 -57 171 -150 443 -205 605 -55 162 -129 384 -166 492 -37 109 -70 192 -73 185 -4 -7 -87 -246 -184 -532 -259 -763 -306 -900 -550 -1615 -42 -124 -111 -325 -152 -447 l-76 -223 -162 0 c-146 0 -164 2 -170 18 -7 17 -128 364 -210 602 -57 165 -117 338 -208 600 -41 118 -134 386 -207 595 -72 209 -168 484 -212 610 -44 127 -91 265 -106 308 -14 42 -29 77 -32 77 -3 0 -16 -35 -30 -78 -14 -42 -226 -674 -470 -1404 l-445 -1328 -177 0 c-98 0 -178 1 -178 3 0 5 388 1159 825 2452 136 402 253 751 261 778 l15 47 183 0 182 0 107 -307z"/>
 </g>

</svg>