<?xml version="1.0" encoding="UTF-8" standalone="no"?>
<!DOCTYPE svg PUBLIC "-//W3C//DTD SVG 1.1//EN" "http://www.w3.org/Graphics/SVG/1.1/DTD/svg11.dtd">
<svg version="1.1" xmlns="http://www.w3.org/2000/svg" xmlns:xlink="http://www.w3.org/1999/xlink" preserveAspectRatio="xMidYMid meet" width="640" height="640"><defs><path d="M304.25 154.4C304.25 237.19 237.04 304.4 154.25 304.4C71.46 304.4 4.25 237.19 4.25 154.4C4.25 71.62 71.46 4.4 154.25 4.4C237.04 4.4 304.25 71.62 304.25 154.4Z" id="aXQg7ejYv"></path><path d="M254.83 203.65C246.98 167.15 236.01 130.74 226.35 99.48C225.23 95.87 224.12 92.27 223.03 88.66C222.64 87.38 221.55 86.41 220.19 86.13C218.81 85.85 217.41 86.31 216.51 87.33C214.65 89.44 199.77 106.3 197.91 108.4C195.74 100.64 193.95 94.33 192.81 90.52C185.92 67.45 169.92 67.14 169.24 67.14C169.24 67.14 147.11 67.08 134.04 67.08C119.25 67.08 109.83 78.85 109.38 79.42C108.42 80.71 103.62 87.15 94.98 98.75C65.79 103.69 49.58 106.43 46.34 106.98C44.42 107.31 43.08 108.96 43.23 110.81C43.3 111.69 43.37 112.84 43.45 114.21C44.61 134.36 47.26 153.51 58.6 157.2C69.29 160.68 80.6 161.63 91.54 162.56C93.81 162.75 96.09 162.94 98.35 163.16C99.26 172.71 102.19 202.26 104.76 213.1C105.16 214.77 106.72 215.91 108.44 215.91C108.72 215.91 109 215.88 109.28 215.82C111.32 215.38 112.59 213.44 112.13 211.5C109.22 199.25 105.64 159.96 105.6 159.57C105.45 157.85 104.05 156.48 102.26 156.29C98.93 155.94 95.57 155.65 92.2 155.37C81.71 154.48 70.86 153.56 61.04 150.37C55.67 148.62 52.29 136.32 50.99 113.81C50.98 113.71 50.98 113.62 50.97 113.53C55.66 112.74 93.13 106.4 97.82 105.6C98.79 105.44 99.66 104.91 100.23 104.14C101.76 102.1 113.95 85.73 115.48 83.69C115.55 83.59 122.98 74.3 134.04 74.3C147.03 74.3 168.97 74.36 169.16 74.36C169.16 74.36 169.16 74.36 169.16 74.36C169.61 74.38 180.3 74.93 185.55 92.5C186.76 96.54 188.71 103.45 191.06 111.88C188.98 112.17 172.34 114.46 170.26 114.75C160.4 115.78 156.04 123.29 152.19 129.92C151.1 131.81 150.06 133.59 148.94 135.18C148.59 135.66 148.21 136.29 147.81 136.98C147.29 137.85 146.22 139.65 145.86 139.93C145.64 139.99 145.43 140.07 145.23 140.16C144.89 140.31 137.02 143.97 131.59 147.44C130.45 148.16 129.81 149.41 129.92 150.71C130 151.8 132.24 177.56 153.14 180.19C165.5 181.75 174.29 182.15 178.83 182.25C179.15 185.58 181.71 212.16 182.03 215.49C182.21 217.36 183.86 218.76 185.79 218.76C185.91 218.76 186.02 218.76 186.14 218.75C188.22 218.57 189.75 216.81 189.56 214.82C189.2 211.17 186.39 181.98 186.04 178.33C185.86 176.44 184.14 175 182.19 175.05C182.08 175.05 171.8 175.26 154.12 173.03C142.14 171.53 138.64 157.61 137.73 152.25C142.02 149.74 147.16 147.3 148.29 146.76C151.28 145.75 153.06 142.76 154.38 140.54C154.67 140.04 154.94 139.58 155.19 139.23C156.5 137.38 157.67 135.37 158.8 133.43C162.73 126.66 165.51 122.51 171.21 121.91C172.67 121.71 179.93 120.71 193.01 118.91C195.92 118.51 197.53 118.29 197.85 118.24C198.77 118.12 199.61 117.67 200.2 117C200.21 116.99 200.23 116.97 200.27 116.92C210.76 105.05 216.58 98.45 217.75 97.13C218.2 98.59 218.65 100.06 219.1 101.52C228.72 132.65 239.64 168.88 247.43 205.11C247.62 205.98 249.12 212.95 249.3 213.82C249.72 215.77 251.71 217.03 253.76 216.63C255.81 216.23 257.12 214.32 256.7 212.36C256.33 210.62 255.02 204.52 254.83 203.65Z" id="f1NNFkp5Qp"></path><path d="M157.54 242L174.41 244.21L162.2 254.9L165.09 270L150 262.87L134.91 270L137.8 254.9L125.59 244.21L142.46 242L150 228.27L157.54 242Z" id="cbTmaDYh3"></path></defs><g><g><g><use xlink:href="#aXQg7ejYv" opacity="1" fill="#112b43" fill-opacity="1"></use><g><use xlink:href="#aXQg7ejYv" opacity="1" fill-opacity="0" stroke="#112b43" stroke-width="8" stroke-opacity="1"></use></g></g><g><use xlink:href="#f1NNFkp5Qp" opacity="1" fill="#ffffff" fill-opacity="1"></use></g><g><use xlink:href="#cbTmaDYh3" opacity="1" fill="#f9f7f7" fill-opacity="1"></use></g></g></g></svg>